<?xml version="1.0" standalone="no"?>
<!DOCTYPE svg PUBLIC "-//W3C//DTD SVG 20010904//EN"
 "http://www.w3.org/TR/2001/REC-SVG-20010904/DTD/svg10.dtd">
<svg version="1.0" xmlns="http://www.w3.org/2000/svg"
 width="608.000000pt" height="608.000000pt" viewBox="0 0 608.000000 608.000000"
 preserveAspectRatio="xMidYMid meet">
<metadata>
Created by potrace 1.14, written by Peter Selinger 2001-2017
</metadata>
<g transform="translate(0.000000,608.000000) scale(0.100000,-0.100000)"
fill="#000000" stroke="none">
<path d="M2810 6074 c-1567 -141 -2759 -1392 -2807 -2944 -16 -533 114 -1082
367 -1540 67 -123 220 -352 306 -460 95 -118 339 -361 462 -459 341 -269 741
-470 1142 -571 573 -145 1151 -125 1710 59 625 206 1173 614 1542 1151 96 139
143 219 218 370 395 790 432 1681 104 2497 -304 759 -911 1367 -1674 1677
-366 148 -697 215 -1095 221 -126 1 -250 1 -275 -1z m274 -1234 c46 -145 157
-369 238 -482 141 -195 279 -336 648 -663 367 -326 484 -453 571 -618 139
-267 146 -538 18 -754 -73 -122 -225 -249 -369 -307 -74 -30 -78 -31 -255 -31
-162 0 -187 2 -249 23 -214 72 -381 207 -505 409 -30 48 -63 102 -73 118 l-20
30 6 -125 c17 -370 121 -658 313 -860 182 -192 425 -301 758 -339 186 -22 172
-17 180 -59 3 -20 8 -45 11 -54 5 -17 -62 -18 -1314 -18 l-1319 0 9 52 c5 29
11 54 12 55 1 2 72 12 157 23 189 24 294 49 407 96 331 137 530 373 622 739
33 131 73 505 51 479 -4 -5 -33 -52 -63 -104 -140 -238 -330 -391 -563 -451
-108 -28 -300 -30 -400 -4 -244 62 -448 262 -510 500 -22 88 -20 281 5 381 57
227 236 453 635 799 206 179 477 445 570 560 159 196 261 381 335 608 23 71
46 125 50 120 4 -4 23 -60 44 -123z"/>
</g>
</svg>
